<?xml version="1.0" encoding="UTF-8"?>
<svg version="1.1" xmlns="http://www.w3.org/2000/svg" width="1800" height="900">
<path d="M0 0 C594 0 1188 0 1800 0 C1800 297 1800 594 1800 900 C1206 900 612 900 0 900 C0 603 0 306 0 0 Z " fill="#F6F7F9" transform="translate(0,0)"/>
<path d="M0 0 C1.68603514 0.00028243 3.3720704 0.00012305 5.05810547 -0.0004425 C9.61322325 -0.0007283 14.16831447 0.0051332 18.7234261 0.01213145 C23.49200253 0.01840128 28.26057963 0.01897166 33.02915955 0.02015686 C42.04931254 0.0232595 51.06945334 0.03145846 60.08960098 0.04150635 C72.28547817 0.05479564 84.48135872 0.06017602 96.67724133 0.06600857 C115.87850529 0.07539909 135.07974355 0.09532514 154.28100586 0.11352539 C154.28100586 25.85352539 154.28100586 51.59352539 154.28100586 78.11352539 C135.80100586 78.11352539 117.32100586 78.11352539 98.28100586 78.11352539 C98.28100586 72.83352539 98.28100586 67.55352539 98.28100586 62.11352539 C111.81100586 62.11352539 125.34100586 62.11352539 139.28100586 62.11352539 C139.28100586 46.60352539 139.28100586 31.09352539 139.28100586 15.11352539 C119.46085654 15.17654155 99.64087601 15.25184267 79.82086849 15.3492403 C70.61675606 15.3940819 61.41268131 15.43352297 52.20849609 15.45996094 C44.18006147 15.48303572 36.15174729 15.51653834 28.12340838 15.56222695 C23.8779641 15.58603217 19.63263817 15.60484369 15.38712883 15.6111393 C11.37909538 15.61724826 7.37136423 15.63745355 3.36344337 15.6678009 C1.90395087 15.67648915 0.4444187 15.68032321 -1.01509857 15.67853355 C-21.37294706 15.66147496 -38.65948767 20.12271443 -54.71899414 33.11352539 C-55.42540039 33.64461914 -56.13180664 34.17571289 -56.85961914 34.72290039 C-68.59437847 44.05526805 -78.24671854 61.30144587 -80.50805664 76.17602539 C-82.23534596 100.23012846 -78.10161124 121.06947611 -62.53149414 140.23852539 C-51.54064109 152.21070461 -34.61973198 162.17603377 -18.09448242 163.29052734 C4.79121738 163.79046735 24.58107201 160.92683839 42.28100586 145.11352539 C42.96678711 144.50895508 43.65256836 143.90438477 44.35913086 143.28149414 C57.06782239 131.37315913 65.53017073 113.05245192 66.4069519 95.60765076 C66.49249052 92.52893462 66.54995957 89.45087748 66.59741211 86.37133789 C66.62858376 84.68607498 66.62858376 84.68607498 66.66038513 82.96676636 C66.7255781 79.39074607 66.7846247 75.81465462 66.84350586 72.23852539 C66.88671985 69.80883064 66.93033506 67.37914299 66.97436523 64.94946289 C67.0812284 59.00422482 67.18305013 53.05891653 67.28100586 47.11352539 C56.40539765 47.12845253 45.53024767 47.17027973 34.65488052 47.24561596 C29.60392675 47.2797777 24.55327199 47.30497905 19.50219727 47.30908203 C14.61950464 47.31338826 9.73748527 47.34204233 4.85500336 47.38695717 C3.00051559 47.39985826 1.14594695 47.40426632 -0.70858002 47.39967918 C-15.44342615 47.37174451 -26.52864984 49.09403181 -37.53149414 59.79711914 C-45.61329934 68.35517358 -49.8765144 76.62308869 -50.15649414 88.61352539 C-49.73618218 102.42777844 -45.35509238 113.43770948 -35.32446289 123.03149414 C-24.01213879 132.07117742 -11.64951492 133.29097844 2.28100586 132.11352539 C5.99999634 131.28969839 8.99747014 130.02200644 12.28100586 128.11352539 C13.05702148 127.67782227 13.83303711 127.24211914 14.63256836 126.79321289 C25.68664241 120.02767593 31.64522761 110.41981948 34.73803711 98.03149414 C36.63311918 87.84713221 35.40528505 77.80817688 29.90209961 68.87524414 C28.72984892 67.26214704 27.50995821 65.6838534 26.28100586 64.11352539 C26.28100586 63.45352539 26.28100586 62.79352539 26.28100586 62.11352539 C32.22100586 62.11352539 38.16100586 62.11352539 44.28100586 62.11352539 C51.77773328 76.31785103 54.06888899 91.51708583 49.37084961 107.19165039 C43.05956238 124.11223408 33.62471128 135.8821689 17.28100586 144.11352539 C3.30694872 150.16542135 -12.27916281 151.50152215 -26.71899414 146.11352539 C-43.09081716 139.23834896 -55.17538804 129.617965 -62.15649414 112.80102539 C-67.65232095 98.01273779 -68.0896795 80.67808567 -61.71899414 66.11352539 C-61.19305664 64.90889648 -61.19305664 64.90889648 -60.65649414 63.67993164 C-57.45414107 57.26410622 -52.71356956 52.19246864 -47.71899414 47.11352539 C-46.75993164 46.13512695 -46.75993164 46.13512695 -45.78149414 45.13696289 C-30.83326371 30.99842827 -12.43067463 30.67391837 6.89038086 30.82055664 C9.07041124 30.82616103 11.25044543 30.83042714 13.43048096 30.8334198 C19.13178175 30.84480222 24.83284847 30.87421181 30.53405762 30.90753174 C36.3663415 30.93837584 42.19866369 30.95195563 48.03100586 30.96704102 C59.44777462 30.99908845 70.86437068 31.05020387 82.28100586 31.11352539 C82.37446801 40.20748779 82.44515149 49.30128009 82.48825455 58.3956213 C82.50896166 62.62036775 82.53696233 66.84478111 82.58276367 71.06933594 C82.6268344 75.1607589 82.65026909 79.25186541 82.66051483 83.34350777 C82.66779822 84.88972506 82.68201345 86.43592881 82.70392609 87.98200798 C82.89314168 101.91061559 81.32016044 116.14067589 74.46850586 128.55102539 C74.12231201 129.20731934 73.77611816 129.86361328 73.41943359 130.53979492 C61.15065649 153.32747097 41.94956937 169.66006882 17.32226562 177.53198242 C9.68712684 179.70718881 2.39036979 180.44585584 -5.53149414 180.36352539 C-6.98096436 180.35119873 -6.98096436 180.35119873 -8.4597168 180.33862305 C-33.30366593 179.95115243 -55.01609384 170.35794685 -72.85961914 153.03540039 C-81.78996969 143.54250807 -88.30654028 132.32189575 -92.71899414 120.11352539 C-93.16178711 118.94563477 -93.16178711 118.94563477 -93.61352539 117.75415039 C-101.42154754 96.06092629 -98.89732445 72.52203815 -89.56616211 51.7956543 C-78.24792361 27.97560954 -58.25057804 11.92340808 -33.71899414 3.11352539 C-22.75967592 -0.41673287 -11.36536546 -0.02673192 0 0 Z " fill="#C61644" transform="translate(870.718994140625,358.886474609375)"/>
</svg>
