<?xml version="1.0" encoding="UTF-8"?>
<svg version="1.1" xmlns="http://www.w3.org/2000/svg" width="220" height="220">
    <path d="M0 0 C1.86090271 -0.00065712 1.86090271 -0.00065712 3.75939941 -0.00132751 C7.11618571 0.00038738 10.47239783 0.01528736 13.82908273 0.03639436 C17.35374477 0.05532568 20.8784169 0.05692441 24.40312195 0.06047058 C31.0574213 0.06974326 37.71157033 0.09429125 44.3658039 0.12451905 C53.37194299 0.16453049 62.37812406 0.18055661 71.3843298 0.1980257 C85.54498775 0.2261167 99.70532871 0.28591753 113.8659668 0.34057617 C113.8659668 19.48057617 113.8659668 38.62057617 113.8659668 58.34057617 C100.3359668 58.34057617 86.8059668 58.34057617 72.8659668 58.34057617 C72.8659668 54.05057617 72.8659668 49.76057617 72.8659668 45.34057617 C82.4359668 45.34057617 92.0059668 45.34057617 101.8659668 45.34057617 C101.8659668 34.45057617 101.8659668 23.56057617 101.8659668 12.34057617 C87.33971279 12.40361568 72.81366812 12.47912965 58.28760147 12.57629108 C51.54176656 12.62111458 44.79598286 12.66055954 38.05004883 12.68701172 C31.53359542 12.71311875 25.01737135 12.75357379 18.50106049 12.80376244 C16.02135838 12.82038111 13.54161665 12.83192638 11.06186676 12.83819008 C7.57477567 12.84788548 4.08826477 12.8760104 0.60131836 12.90820312 C-0.41217178 12.90676804 -1.42566193 12.90533295 -2.46986389 12.90385437 C-16.79683973 13.08956158 -30.95448673 17.68124804 -41.5871582 27.62963867 C-52.54799592 39.75298947 -57.68895643 53.60094007 -57.3762207 69.79370117 C-56.49108177 82.75670354 -50.92635884 96.48724066 -41.1340332 105.34057617 C-27.87672035 116.11507072 -14.08841306 120.49825409 2.8659668 119.34057617 C16.820998 117.41211709 29.4090109 110.35397592 37.9284668 99.21557617 C48.22954279 84.54195932 49.17382108 70.55287534 49.4909668 53.21557617 C49.52922093 51.47857901 49.56827677 49.74159932 49.6081543 48.00463867 C49.70333939 43.78342913 49.78766017 39.56213118 49.8659668 35.34057617 C42.21537746 35.37881064 34.5651993 35.43842729 26.91500282 35.52447891 C23.36169356 35.56379413 19.80862617 35.59605974 16.25512695 35.61157227 C12.15886709 35.62977613 8.06350812 35.67979599 3.9675293 35.73120117 C2.70671539 35.73242981 1.44590149 35.73365845 0.1468811 35.73492432 C-10.52896684 35.9102803 -18.60921784 38.13692011 -26.4465332 45.54760742 C-33.06097399 52.57545076 -34.62434419 59.62831986 -34.44262695 69.02416992 C-33.62003352 77.86444615 -29.50260966 84.33353462 -23.1340332 90.34057617 C-15.59731744 96.30714281 -7.48626419 97.28416014 1.8659668 96.34057617 C10.58256195 94.24608496 16.75521322 89.26994912 22.2409668 82.34057617 C26.35708025 74.74159749 27.49298498 65.88164752 25.0378418 57.52026367 C24.0611497 55.07853343 22.99375338 52.71551362 21.8659668 50.34057617 C20.8759668 47.86557617 20.8759668 47.86557617 19.8659668 45.34057617 C24.4859668 45.34057617 29.1059668 45.34057617 33.8659668 45.34057617 C39.67166742 56.39013542 40.97422544 68.62089705 37.3034668 80.71557617 C32.25655821 93.79488858 23.92206294 101.13213891 11.63549805 107.14135742 C2.72320908 111.00041626 -9.95846647 110.85853904 -19.1340332 107.77807617 C-31.49298171 102.37577506 -39.87817089 94.1654226 -45.1887207 81.85620117 C-48.92392672 71.91623144 -48.7119498 58.52496783 -44.45825195 48.79370117 C-37.68290583 36.24232251 -29.11538924 28.23422627 -15.43548584 23.78858948 C-12.22402194 23.16342842 -9.05289348 23.21000024 -5.79516602 23.22705078 C-4.69701317 23.22683174 -4.69701317 23.22683174 -3.57667542 23.22660828 C-1.16347258 23.22730341 1.24965249 23.2350771 3.6628418 23.24291992 C5.33864296 23.24478552 7.01444468 23.24620875 8.69024658 23.24720764 C13.09610506 23.25102165 17.50193045 23.26084241 21.90777588 23.27191162 C26.40555372 23.28214974 30.90333691 23.28671041 35.40112305 23.29174805 C44.22275215 23.30246568 53.04435672 23.3195287 61.8659668 23.34057617 C61.96857069 30.31066098 62.03792939 37.28054654 62.08569336 44.2512207 C62.10563467 46.61555254 62.13279768 48.97983619 62.16772461 51.34399414 C62.52179899 75.95216338 59.6515264 96.08292507 41.77612305 114.49291992 C27.47348789 127.96791615 10.65668991 132.85270607 -8.53637695 132.54370117 C-26.66274231 131.93441158 -41.95555739 123.32455747 -54.1340332 110.34057617 C-66.43279621 96.93571456 -70.97842968 79.49173769 -70.4074707 61.69213867 C-69.46490465 43.7522245 -61.21047158 28.34370908 -48.1340332 16.34057617 C-33.97402261 4.34362236 -18.37930819 -0.17376854 0 0 Z "
          fill="#C51141" transform="translate(88.134033203125,43.659423828125)"/>
</svg>
